<svg width="70" height="70" viewBox="0 0 70 70" fill="none" xmlns="http://www.w3.org/2000/svg">
<g clip-path="url(#clip0_2197_4502)">
<path d="M1.33531 0.110332C2.16235 0.512183 2.98939 0.914035 3.81707 1.31589C7.65606 3.18126 11.4957 5.04663 15.3347 6.912C20.6657 9.502 25.9967 12.092 31.3277 14.682C36.3165 17.1061 41.3053 19.5295 46.2941 21.9536C50.1078 23.8066 53.8969 25.764 57.835 27.3364C55.0402 26.7706 52.0821 27.6171 49.4999 28.7254C47.2618 29.686 45.1307 30.8773 42.9179 31.8923C40.5042 33 37.7373 33.0162 35.3106 31.9377L13.4019 22.2005C5.1205 18.519 -0.226074 10.2422 -0.226074 1.102C-0.226074 0.291165 0.611981 -0.240965 1.33531 0.110332Z" fill="url(#paint0_linear_2197_4502)"/>
<path d="M68.2372 37.5654L9.17208 66.4203L2.19735 69.8276C1.07606 70.3753 -0.226074 69.5502 -0.226074 68.2921V65.9121C-0.226074 59.2453 3.41652 53.1644 9.17208 50.05C9.55707 49.8413 9.9518 49.6462 10.3556 49.4647L42.1965 34.9974L52.2668 30.4895C53.0141 30.1551 53.7822 29.8887 54.5625 29.6904C56.0948 29.3002 57.6743 29.1712 59.237 29.3021C60.9578 29.4454 62.6573 29.9049 64.2491 30.6781L68.2313 32.6122C70.2853 33.6104 70.2886 36.5633 68.2372 37.5654Z" fill="url(#paint1_linear_2197_4502)"/>
</g>
<defs>
<linearGradient id="paint0_linear_2197_4502" x1="28.8045" y1="32.7349" x2="28.8045" y2="0.000146584" gradientUnits="userSpaceOnUse">
<stop stop-color="#2E3EDF"/>
<stop offset="1" stop-color="#7E03EA"/>
</linearGradient>
<linearGradient id="paint1_linear_2197_4502" x1="-2.28265" y1="65.6205" x2="65.5383" y2="29.529" gradientUnits="userSpaceOnUse">
<stop stop-color="#7E03EA"/>
<stop offset="1" stop-color="#2E3EDF"/>
</linearGradient>
<clipPath id="clip0_2197_4502">
<rect width="70" height="70" fill="white" transform="translate(-0.226074)"/>
</clipPath>
</defs>
</svg>
