<svg width="70" height="70" viewBox="0 0 70 70" fill="none" xmlns="http://www.w3.org/2000/svg">
<g clip-path="url(#clip0_2197_4658)">
<path d="M52.0097 26.673V37.3869C52.0097 45.3423 45.546 51.7986 37.5815 51.7986H26.8754C25.7147 51.7986 24.6141 52.2584 23.7936 53.0779L14.4883 62.3726C11.7467 65.111 13.6878 69.8083 17.57 69.8083H55.5718C63.5363 69.8083 70 63.3521 70 55.3966V17.4183C70 13.5405 65.3173 11.6016 62.5558 14.34L53.2504 23.6347C52.43 24.4543 51.9697 25.5536 51.9697 26.713L52.0097 26.673ZM32.4185 17.8181H43.1447C44.3053 17.8181 45.4059 17.3583 46.2264 16.5388L55.5317 7.2441C58.2733 4.50567 56.3322 -0.19165 52.45 -0.19165H14.4282C6.46369 -0.19165 0 6.26466 0 14.2201V52.1984C0 56.0762 4.68267 58.0151 7.44425 55.2767L16.7496 45.982C17.57 45.1624 18.0303 44.0631 18.0303 42.9037V32.1899C18.0303 24.2344 24.494 17.7781 32.4585 17.7781L32.4185 17.8181Z" fill="#01B676"/>
</g>
<defs>
<clipPath id="clip0_2197_4658">
<rect width="70" height="70" fill="white" transform="translate(-0.226074)"/>
</clipPath>
</defs>
</svg>
